<svg xmlns="http://www.w3.org/2000/svg" width="120" height="116" viewBox="0 0 120 116">
<defs>
<radialGradient id="fur" cx="0.4" cy="0.35" r="0.8"><stop offset="0" stop-color="#8a5f48"/><stop offset="0.55" stop-color="#553628"/><stop offset="1" stop-color="#2e1c15"/></radialGradient><radialGradient id="acorn" cx="0.4" cy="0.3" r="0.85"><stop offset="0" stop-color="#e2b676"/><stop offset="0.6" stop-color="#b07a3e"/><stop offset="1" stop-color="#7a4f24"/></radialGradient><clipPath id="capc"><path d="M 24,58 C 24,30 42,18 60,18 C 78,18 96,30 96,58 C 82,52 38,52 24,58 Z"/></clipPath>
</defs>
<polygon points="91.8,71.0 99.0,74.0 91.8,77.0" fill="#3a241a" stroke="#22150f" stroke-width="1.4" stroke-linejoin="round"/><polygon points="91.8,77.3 98.1,81.5 90.5,83.1" fill="#3a241a" stroke="#22150f" stroke-width="1.4" stroke-linejoin="round"/><polygon points="90.4,83.4 95.6,88.6 87.8,88.9" fill="#3a241a" stroke="#22150f" stroke-width="1.4" stroke-linejoin="round"/><polygon points="87.6,89.1 91.6,95.2 83.9,94.0" fill="#3a241a" stroke="#22150f" stroke-width="1.4" stroke-linejoin="round"/><polygon points="83.7,94.2 86.1,100.8 78.9,98.2" fill="#3a241a" stroke="#22150f" stroke-width="1.4" stroke-linejoin="round"/><polygon points="78.7,98.4 79.5,105.2 73.2,101.3" fill="#3a241a" stroke="#22150f" stroke-width="1.4" stroke-linejoin="round"/><polygon points="72.9,101.5 72.1,108.2 66.8,103.3" fill="#3a241a" stroke="#22150f" stroke-width="1.4" stroke-linejoin="round"/><polygon points="66.5,103.4 64.1,109.8 60.2,104.0" fill="#3a241a" stroke="#22150f" stroke-width="1.4" stroke-linejoin="round"/><polygon points="59.8,104.0 55.9,109.8 53.5,103.4" fill="#3a241a" stroke="#22150f" stroke-width="1.4" stroke-linejoin="round"/><polygon points="53.2,103.3 47.9,108.2 47.1,101.5" fill="#3a241a" stroke="#22150f" stroke-width="1.4" stroke-linejoin="round"/><polygon points="46.8,101.3 40.5,105.2 41.3,98.4" fill="#3a241a" stroke="#22150f" stroke-width="1.4" stroke-linejoin="round"/><polygon points="41.1,98.2 33.9,100.8 36.3,94.2" fill="#3a241a" stroke="#22150f" stroke-width="1.4" stroke-linejoin="round"/><polygon points="36.1,94.0 28.4,95.2 32.4,89.1" fill="#3a241a" stroke="#22150f" stroke-width="1.4" stroke-linejoin="round"/><polygon points="32.2,88.9 24.4,88.6 29.6,83.4" fill="#3a241a" stroke="#22150f" stroke-width="1.4" stroke-linejoin="round"/><polygon points="29.5,83.1 21.9,81.5 28.2,77.3" fill="#3a241a" stroke="#22150f" stroke-width="1.4" stroke-linejoin="round"/><polygon points="28.2,77.0 21.0,74.0 28.2,71.0" fill="#3a241a" stroke="#22150f" stroke-width="1.4" stroke-linejoin="round"/><polygon points="28.2,70.7 21.9,66.5 29.5,64.9" fill="#3a241a" stroke="#22150f" stroke-width="1.4" stroke-linejoin="round"/><polygon points="29.6,64.6 24.4,59.4 32.2,59.1" fill="#3a241a" stroke="#22150f" stroke-width="1.4" stroke-linejoin="round"/><polygon points="32.4,58.9 28.4,52.8 36.1,54.0" fill="#3a241a" stroke="#22150f" stroke-width="1.4" stroke-linejoin="round"/><polygon points="36.3,53.8 33.9,47.2 41.1,49.8" fill="#3a241a" stroke="#22150f" stroke-width="1.4" stroke-linejoin="round"/><polygon points="41.3,49.6 40.5,42.8 46.8,46.7" fill="#3a241a" stroke="#22150f" stroke-width="1.4" stroke-linejoin="round"/><polygon points="47.1,46.5 47.9,39.8 53.2,44.7" fill="#3a241a" stroke="#22150f" stroke-width="1.4" stroke-linejoin="round"/><polygon points="53.5,44.6 55.9,38.2 59.8,44.0" fill="#3a241a" stroke="#22150f" stroke-width="1.4" stroke-linejoin="round"/><polygon points="60.2,44.0 64.1,38.2 66.5,44.6" fill="#3a241a" stroke="#22150f" stroke-width="1.4" stroke-linejoin="round"/><polygon points="66.8,44.7 72.1,39.8 72.9,46.5" fill="#3a241a" stroke="#22150f" stroke-width="1.4" stroke-linejoin="round"/><polygon points="73.2,46.7 79.5,42.8 78.7,49.6" fill="#3a241a" stroke="#22150f" stroke-width="1.4" stroke-linejoin="round"/><polygon points="78.9,49.8 86.1,47.2 83.7,53.8" fill="#3a241a" stroke="#22150f" stroke-width="1.4" stroke-linejoin="round"/><polygon points="83.9,54.0 91.6,52.8 87.6,58.9" fill="#3a241a" stroke="#22150f" stroke-width="1.4" stroke-linejoin="round"/><polygon points="87.8,59.1 95.6,59.4 90.4,64.6" fill="#3a241a" stroke="#22150f" stroke-width="1.4" stroke-linejoin="round"/><polygon points="90.5,64.9 98.1,66.5 91.8,70.7" fill="#3a241a" stroke="#22150f" stroke-width="1.4" stroke-linejoin="round"/><ellipse cx="60" cy="74" rx="33" ry="31" fill="url(#fur)" stroke="#22150f" stroke-width="2.4"/><ellipse cx="48" cy="84" rx="12" ry="7" fill="#ffffff" opacity="0.08"/><path d="M 24,58 C 24,30 42,18 60,18 C 78,18 96,30 96,58 C 82,52 38,52 24,58 Z" fill="url(#acorn)"/><g clip-path="url(#capc)"><path d="M -40,60 L -16,16" stroke="#8a5c2c" stroke-width="1.6" opacity="0.65"/><path d="M -40,16 L -16,60" stroke="#8a5c2c" stroke-width="1.6" opacity="0.65"/><path d="M -28,60 L -4,16" stroke="#8a5c2c" stroke-width="1.6" opacity="0.65"/><path d="M -28,16 L -4,60" stroke="#8a5c2c" stroke-width="1.6" opacity="0.65"/><path d="M -16,60 L 8,16" stroke="#8a5c2c" stroke-width="1.6" opacity="0.65"/><path d="M -16,16 L 8,60" stroke="#8a5c2c" stroke-width="1.6" opacity="0.65"/><path d="M -4,60 L 20,16" stroke="#8a5c2c" stroke-width="1.6" opacity="0.65"/><path d="M -4,16 L 20,60" stroke="#8a5c2c" stroke-width="1.6" opacity="0.65"/><path d="M 8,60 L 32,16" stroke="#8a5c2c" stroke-width="1.6" opacity="0.65"/><path d="M 8,16 L 32,60" stroke="#8a5c2c" stroke-width="1.6" opacity="0.65"/><path d="M 20,60 L 44,16" stroke="#8a5c2c" stroke-width="1.6" opacity="0.65"/><path d="M 20,16 L 44,60" stroke="#8a5c2c" stroke-width="1.6" opacity="0.65"/><path d="M 32,60 L 56,16" stroke="#8a5c2c" stroke-width="1.6" opacity="0.65"/><path d="M 32,16 L 56,60" stroke="#8a5c2c" stroke-width="1.6" opacity="0.65"/><path d="M 44,60 L 68,16" stroke="#8a5c2c" stroke-width="1.6" opacity="0.65"/><path d="M 44,16 L 68,60" stroke="#8a5c2c" stroke-width="1.6" opacity="0.65"/><path d="M 56,60 L 80,16" stroke="#8a5c2c" stroke-width="1.6" opacity="0.65"/><path d="M 56,16 L 80,60" stroke="#8a5c2c" stroke-width="1.6" opacity="0.65"/><path d="M 68,60 L 92,16" stroke="#8a5c2c" stroke-width="1.6" opacity="0.65"/><path d="M 68,16 L 92,60" stroke="#8a5c2c" stroke-width="1.6" opacity="0.65"/><path d="M 80,60 L 104,16" stroke="#8a5c2c" stroke-width="1.6" opacity="0.65"/><path d="M 80,16 L 104,60" stroke="#8a5c2c" stroke-width="1.6" opacity="0.65"/><path d="M 92,60 L 116,16" stroke="#8a5c2c" stroke-width="1.6" opacity="0.65"/><path d="M 92,16 L 116,60" stroke="#8a5c2c" stroke-width="1.6" opacity="0.65"/><ellipse cx="46" cy="30" rx="12" ry="6" transform="rotate(-25 46 30)" fill="#ffffff" opacity="0.35"/></g><path d="M 24,58 C 24,30 42,18 60,18 C 78,18 96,30 96,58 C 82,52 38,52 24,58 Z" fill="none" stroke="#3a2616" stroke-width="2.8" stroke-linejoin="round"/><path d="M 22,58 C 40,66 80,66 98,58" fill="none" stroke="#3a2616" stroke-width="7" stroke-linecap="round"/><path d="M 22,58 C 40,66 80,66 98,58" fill="none" stroke="#9a6a36" stroke-width="3.6" stroke-linecap="round"/><path d="M 57,20 C 56,12 58,6 64,4" fill="none" stroke="#3a2616" stroke-width="6" stroke-linecap="round"/><path d="M 57,20 C 56,12 58,6 64,4" fill="none" stroke="#8a5c2c" stroke-width="3" stroke-linecap="round"/><circle cx="60" cy="38" r="9" fill="#c592ff" opacity="0.25"/><polygon points="60,31 65,38 60,45 55,38" fill="#ecd4ff" stroke="#5b2a8c" stroke-width="1.4" stroke-linejoin="round"/><ellipse cx="49" cy="78" rx="7.5" ry="8.8" fill="#170f0c"/><path d="M 43.4,81.1 Q 49.0,87.2 54.6,81.1" fill="none" stroke="#b27cff" stroke-width="2.1" stroke-linecap="round" opacity="0.85"/><circle cx="46.8" cy="74.7" r="3.1" fill="#ffffff"/><circle cx="51.2" cy="80.2" r="1.3" fill="#ffffff" opacity="0.8"/><ellipse cx="71" cy="78" rx="7.5" ry="8.8" fill="#170f0c"/><path d="M 65.4,81.1 Q 71.0,87.2 76.6,81.1" fill="none" stroke="#b27cff" stroke-width="2.1" stroke-linecap="round" opacity="0.85"/><circle cx="68.8" cy="74.7" r="3.1" fill="#ffffff"/><circle cx="73.2" cy="80.2" r="1.3" fill="#ffffff" opacity="0.8"/><circle cx="40" cy="68" r="3.2" fill="#170f0c"/><circle cx="39" cy="67" r="1.1" fill="#ffffff"/><circle cx="80" cy="68" r="3.2" fill="#170f0c"/><circle cx="79" cy="67" r="1.1" fill="#ffffff"/><ellipse cx="40" cy="90" rx="6" ry="3.4" fill="#ff8f8f" opacity="0.38"/><ellipse cx="80" cy="90" rx="6" ry="3.4" fill="#ff8f8f" opacity="0.38"/><path d="M 55,92 L 57.5,100 L 60,92 Z" fill="#f5ead6" stroke="#22150f" stroke-width="1.4" stroke-linejoin="round"/><path d="M 60,92 L 62.5,100 L 65,92 Z" fill="#f5ead6" stroke="#22150f" stroke-width="1.4" stroke-linejoin="round"/>
</svg>
